<svg width="124" height="43" viewBox="0 0 124 43" fill="none" xmlns="http://www.w3.org/2000/svg">
<g clip-path="url(#clip0_2017_2461)">
<path d="M123.182 5.49468H118.422V0.805716C118.422 0.361183 118.056 0 117.604 0H114.023C113.572 0 113.205 0.361183 113.205 0.805716V5.49468H108.445C107.994 5.49468 107.627 5.85587 107.627 6.3004V9.82674C107.627 10.2713 107.994 10.6325 108.445 10.6325H113.205V15.3193C113.205 15.7638 113.572 16.125 114.023 16.125H117.604C118.056 16.125 118.422 15.7638 118.422 15.3193V10.6325H123.182C123.633 10.6325 124 10.2713 124 9.82674V6.3004C124 5.85587 123.633 5.49468 123.182 5.49468Z" fill="#00A870"/>
<path d="M45.0697 12.902H38.4383V14.8882L37.9643 14.4228C37.534 14.0839 36.988 12.8999 36.3283 12.8999H0.775406C0.347295 12.8999 0 13.2409 0 13.6613C0 14.0817 0.347295 14.4228 0.775406 14.4228H4.08235C1.36078 17.5521 0 21.2584 0 25.5439C0 28.6175 0.456507 31.2299 1.36734 33.3877C2.27817 35.5432 3.37029 37.3128 4.63933 38.6941C5.62879 39.7686 6.5702 40.648 7.46793 41.3301C7.85891 41.6261 8.42244 41.5103 8.66052 41.0877L10.4035 37.9884C10.587 37.6624 10.504 37.2613 10.2201 37.0146C9.55388 36.4312 8.88768 35.7148 8.22367 34.8698C7.39148 33.8123 6.68815 32.5168 6.1137 30.979C5.53924 29.4432 5.2531 27.633 5.2531 25.546C5.2531 23.7422 5.53269 22.1207 6.09185 20.6836C6.65102 19.2466 7.31284 18.0068 8.07296 16.9623C8.83308 15.9199 9.57354 15.0748 10.29 14.4249H28.8779V14.9697C28.8779 15.5703 28.5393 16.1236 27.9954 16.4025L12.0636 24.6237C11.5219 24.9026 11.1811 25.4559 11.1811 26.0565V30.136C11.1811 30.8074 11.6071 31.4101 12.247 31.6503C16.823 33.3726 20.272 34.874 22.5916 36.1567C24.7322 37.3406 26.5669 38.5654 28.0959 39.833C28.5677 40.2233 29.2295 40.3027 29.7953 40.0646L33.135 38.6512C33.74 38.3959 34.131 37.8104 34.131 37.1648V14.4228H36.3261C36.7564 14.4228 37.1234 14.5279 37.4248 14.7402C37.7262 14.9525 37.9621 15.1777 38.1347 15.4158C38.3072 15.6561 38.4077 15.8448 38.4361 15.9864V38.5954C38.4361 39.4898 39.1744 40.2148 40.0852 40.2148H42.0423C42.9531 40.2148 43.6914 39.4898 43.6914 38.5954V14.4228H45.0697C45.4978 14.4228 45.8451 14.0817 45.8451 13.6613C45.8451 13.2409 45.4978 12.8999 45.0697 12.8999V12.902ZM28.8801 34.0847C25.6365 31.9699 21.5323 29.9258 16.5653 27.9526L28.8801 21.6102V34.0826V34.0847Z" fill="#09284C"/>
<path d="M110.344 12.9021H78.0705C77.1599 12.9021 76.4218 13.6286 76.4218 14.5249V14.8947L75.9479 14.4282C75.5177 14.0886 74.9739 12.9042 74.3122 12.9021H72.1612V12.945H68.558C67.6474 12.945 66.9093 13.6716 66.9093 14.5679V16.251C64.6119 14.4433 61.8298 13.5383 58.5585 13.5383C55.4882 13.5383 52.8043 14.4433 50.5092 16.251C49.3321 17.2677 48.4433 18.4542 47.8406 19.8106C47.2379 21.1669 46.9365 22.5792 46.9365 24.0473C46.9365 26.9298 48.0743 29.6124 50.3519 32.0994C49.592 32.6045 49.5942 33.7072 50.3585 34.208L53.0598 35.9814C53.5009 36.2716 54.0796 36.2651 54.5142 35.9663L66.9114 27.4371V39.0058C66.9114 39.7065 67.4901 40.2761 68.202 40.2761H70.8728C71.5847 40.2761 72.1634 39.7065 72.1634 39.0058V14.4261H74.3144C74.7446 14.4261 75.1115 14.5314 75.4128 14.7442C75.7142 14.957 75.9501 15.1827 76.1226 15.4213C76.2951 15.662 76.3955 15.8512 76.4239 15.9931V39.0036C76.4239 39.7043 77.0026 40.274 77.7145 40.274H80.3853C81.0972 40.274 81.6759 39.7043 81.6759 39.0036V14.4261H83.8291H103.717V22.6265C101.62 20.9735 99.0958 20.1481 96.139 20.1481C94.9052 20.1481 93.6866 20.305 92.4812 20.6145C90.2428 21.2658 88.4128 22.476 86.9934 24.245C85.5717 26.0141 84.8467 28.1013 84.8183 30.5087C84.8183 32.151 85.2071 33.6793 85.9823 35.0936C86.7575 36.508 87.8516 37.6988 89.2601 38.6597C90.8193 39.7 92.5489 40.2869 94.4466 40.418C94.7545 40.4395 95.0515 40.2783 95.2087 40.0139L96.698 37.529C96.9994 37.0261 96.674 36.3984 96.0866 36.3146C94.903 36.1469 93.7892 35.7707 92.7476 35.1861C91.7387 34.481 91.0202 33.5761 90.5878 32.4734C90.328 31.8242 90.1991 31.145 90.1991 30.4399C90.1991 29.593 90.4 28.7741 90.8019 27.983C91.3456 26.9943 92.099 26.2677 93.0621 25.8013C94.0229 25.3348 95.0493 25.1027 96.139 25.1027C98.2922 25.1027 100.026 25.8593 101.347 27.3704C102.666 28.8815 103.457 30.541 103.714 32.3487V38.6511C103.714 39.5474 104.453 40.274 105.363 40.274H107.318C108.228 40.274 108.966 39.5474 108.966 38.6511V14.4261H110.344C110.772 14.4261 111.12 14.0843 111.12 13.663C111.12 13.2417 110.772 12.8999 110.344 12.8999V12.9021ZM54.6409 29.1739C53.9792 28.4968 53.4354 27.7896 53.0052 27.0545C52.4593 26.0657 52.1863 25.064 52.1863 24.0473C52.1863 22.4652 52.8043 21.096 54.0381 19.9374C55.272 18.9766 56.794 18.4972 58.6 18.4972C61.5285 18.4972 63.7515 19.6128 65.2736 21.844L54.6409 29.1739Z" fill="#09284C"/>
<path d="M117.499 17.6299H113.905C113.453 17.6299 113.084 17.991 113.084 18.4354V38.5916C113.084 39.4827 113.821 40.2049 114.729 40.2049H116.68C117.588 40.2049 118.324 39.4827 118.324 38.5916V18.4354C118.324 17.991 117.956 17.6299 117.503 17.6299H117.499Z" fill="#09284C"/>
<path d="M17.9012 35.6899C15.8511 35.6899 14.1899 37.3259 14.1899 39.3449C14.1899 41.364 15.8511 42.9999 17.9012 42.9999C19.9514 42.9999 21.6125 41.364 21.6125 39.3449C21.6125 37.3259 19.9514 35.6899 17.9012 35.6899ZM19.5995 41.0175C19.4137 41.2004 19.1143 41.2004 18.9285 41.0175L18.205 40.305C18.1657 40.2662 18.1023 40.2662 18.0629 40.305L17.4597 40.8991C17.4051 40.9529 17.3154 40.9292 17.2936 40.8582L16.4434 38.0319C16.4215 37.9566 16.4915 37.8877 16.568 37.9092L19.4377 38.7465C19.5099 38.7681 19.5339 38.8585 19.4793 38.9101L18.876 39.5042C18.8367 39.543 18.8367 39.6054 18.876 39.6441L19.5995 40.3566C19.7853 40.5396 19.7853 40.8345 19.5995 41.0175Z" fill="#09284C"/>
<path d="M18.7914 39.5657C18.7524 39.5272 18.7524 39.4653 18.7914 39.4268L19.3901 38.8372C19.4443 38.7838 19.4205 38.6962 19.3489 38.6748L16.5007 37.8438C16.4248 37.8224 16.3554 37.8908 16.3771 37.9656L17.2209 40.7706C17.2426 40.8411 17.3337 40.8646 17.3858 40.8112L17.9845 40.2215C18.0235 40.1831 18.0864 40.1831 18.1255 40.2215L18.8435 40.9287C19.0278 41.1102 19.325 41.1102 19.5094 40.9287C19.6938 40.7471 19.6938 40.4544 19.5094 40.2728L18.7914 39.5657Z" fill="white"/>
</g>
<defs>
<clipPath id="clip0_2017_2461">
<rect width="124" height="43" fill="white"/>
</clipPath>
</defs>
</svg>
