<svg width="21" height="20" viewBox="0 0 21 20" fill="none" xmlns="http://www.w3.org/2000/svg">
<path d="M15.0119 2.25667L15.0128 2.25756L18.2274 5.2589C18.295 5.32194 18.3333 5.41017 18.3333 5.50255V16.2498C18.3333 17.1243 17.6244 17.8332 16.75 17.8332H4.24996C3.3755 17.8332 2.66663 17.1243 2.66663 16.2498V3.74984C2.66663 2.87539 3.37551 2.1665 4.24996 2.1665H14.7839C14.8723 2.1665 14.9518 2.20031 15.0119 2.25667ZM11.3358 2.83317H10.8364L10.8358 3.33261L10.8333 5.57619V5.57675C10.8333 5.76883 10.7564 5.89979 10.6359 5.99461C10.5038 6.09857 10.3051 6.1665 10.0833 6.1665H6.74996C6.52819 6.1665 6.32949 6.09857 6.19738 5.99461C6.07689 5.89979 5.99996 5.76883 5.99996 5.57675V3.33317V2.83317H5.49996H4.24996C3.7437 2.83317 3.33329 3.24358 3.33329 3.74984V16.2498C3.33329 16.7561 3.74369 17.1665 4.24996 17.1665H16.75C17.2562 17.1665 17.6666 16.7561 17.6666 16.2498V5.86484V5.64765L17.5079 5.49941L14.7971 2.96775L14.653 2.83317H14.4558H11.3358ZM7.16663 2.83317H6.66663V3.33317V4.99984V5.49984H7.16663H9.66746H10.167L10.1675 5.00034L10.1691 3.33367L10.1696 2.83317H9.66913H7.16663ZM14.6666 10.4998C14.8507 10.4998 15 10.6491 15 10.8332C15 10.9999 14.8771 11.1387 14.7173 11.1628L14.6522 11.1665H6.33329C6.1492 11.1665 5.99996 11.0173 5.99996 10.8332C5.99996 10.6664 6.1228 10.5277 6.28267 10.5036L6.34771 10.4998H14.6666ZM10.5034 13.8332C10.6875 13.8332 10.8368 13.9824 10.8368 14.1665C10.8368 14.3332 10.7139 14.472 10.554 14.4961L10.489 14.4998H6.33329C6.1492 14.4998 5.99996 14.3506 5.99996 14.1665C5.99996 13.9998 6.1228 13.861 6.28267 13.8369L6.34771 13.8332H10.5034Z" fill="black" fill-opacity="0.85" stroke="white"/>
</svg>
